<svg width="39" height="39" viewBox="0 0 39 39" fill="none" xmlns="http://www.w3.org/2000/svg">
<path d="M10.3245 26.4868H5.64813V33.5014H10.3245V26.4868ZM22.0155 17.134H17.3391V33.5014H22.0155V17.134ZM33.7065 5.44305V33.5014H29.0301V5.44305H33.7065ZM29.0301 3.10486C28.4099 3.10486 27.8152 3.3512 27.3767 3.7897C26.9382 4.2282 26.6919 4.82293 26.6919 5.44305V33.5014C26.6919 34.1215 26.9382 34.7162 27.3767 35.1547C27.8152 35.5932 28.4099 35.8396 29.0301 35.8396H33.7065C34.3266 35.8396 34.9213 35.5932 35.3598 35.1547C35.7983 34.7162 36.0447 34.1215 36.0447 33.5014V5.44305C36.0447 4.82293 35.7983 4.2282 35.3598 3.7897C34.9213 3.3512 34.3266 3.10486 33.7065 3.10486H29.0301ZM15.0009 17.134C15.0009 16.5139 15.2473 15.9192 15.6858 15.4807C16.1242 15.0422 16.719 14.7958 17.3391 14.7958H22.0155C22.6356 14.7958 23.2303 15.0422 23.6688 15.4807C24.1073 15.9192 24.3537 16.5139 24.3537 17.134V33.5014C24.3537 34.1215 24.1073 34.7162 23.6688 35.1547C23.2303 35.5932 22.6356 35.8396 22.0155 35.8396H17.3391C16.719 35.8396 16.1242 35.5932 15.6858 35.1547C15.2473 34.7162 15.0009 34.1215 15.0009 33.5014V17.134ZM3.30994 26.4868C3.30994 25.8667 3.55628 25.2719 3.99478 24.8335C4.43327 24.395 5.028 24.1486 5.64813 24.1486H10.3245C10.9446 24.1486 11.5394 24.395 11.9779 24.8335C12.4164 25.2719 12.6627 25.8667 12.6627 26.4868V33.5014C12.6627 34.1215 12.4164 34.7162 11.9779 35.1547C11.5394 35.5932 10.9446 35.8396 10.3245 35.8396H5.64813C5.028 35.8396 4.43327 35.5932 3.99478 35.1547C3.55628 34.7162 3.30994 34.1215 3.30994 33.5014V26.4868Z" fill="black"/>
</svg>
