<svg width="84" height="77" viewBox="0 0 84 77" fill="none" xmlns="http://www.w3.org/2000/svg">
<g clip-path="url(#clip0_1489_4065)">
<path fill-rule="evenodd" clip-rule="evenodd" d="M42.9765 5.35585C42.3497 5.1256 41.6503 5.1256 41.0235 5.35585L9.6915 16.8433L42 28.6869L74.3085 16.8433L42.9765 5.35585ZM78.75 20.3997L44.625 32.9122V71.0368L78.75 58.5244V20.4045V20.3997ZM39.375 71.0417V32.9074L5.25 20.3997V58.5292L39.375 71.0417ZM39.0757 0.88504C40.953 0.196849 43.047 0.196849 44.9243 0.88504L82.3515 14.6103C82.8381 14.7891 83.2552 15.0973 83.549 15.4953C83.8428 15.8932 83.9999 16.3627 84 16.8433V58.5292C83.9993 59.4908 83.6844 60.4302 83.0958 61.2262C82.5072 62.0223 81.672 62.6384 80.6978 62.9952L42.9765 76.8263C42.3497 77.0565 41.6503 77.0565 41.0235 76.8263L3.3075 62.9952C2.33232 62.6391 1.49595 62.0233 0.906371 61.2273C0.316794 60.4312 0.00108323 59.4914 0 58.5292L0 16.8433C0.00012201 16.3627 0.157205 15.8932 0.451012 15.4953C0.744819 15.0973 1.16189 14.7891 1.6485 14.6103L39.0757 0.88504Z" fill="white"/>
</g>
<defs>
<clipPath id="clip0_1489_4065">
<rect width="84" height="77" fill="white"/>
</clipPath>
</defs>
</svg>
