<svg width="85" height="85" viewBox="0 0 85 85" fill="none" xmlns="http://www.w3.org/2000/svg">
<path fill-rule="evenodd" clip-rule="evenodd" d="M0 13.2812C0 12.5768 0.279854 11.9011 0.777998 11.403C1.27614 10.9049 1.95177 10.625 2.65625 10.625H10.625C11.2175 10.6252 11.793 10.8234 12.2598 11.1883C12.7267 11.5531 13.0582 12.0635 13.2016 12.6384L15.3531 21.25H77.0312C77.4347 21.2501 77.8329 21.3421 78.1955 21.5191C78.5581 21.696 78.8756 21.9533 79.124 22.2713C79.3723 22.5893 79.5449 22.9597 79.6288 23.3543C79.7126 23.749 79.7054 24.1576 79.6078 24.5491L71.6391 56.4241C71.4957 56.999 71.1642 57.5094 70.6973 57.8742C70.2304 58.2391 69.655 58.4373 69.0625 58.4375H21.25C20.6575 58.4373 20.082 58.2391 19.6152 57.8742C19.1483 57.5094 18.8168 56.999 18.6734 56.4241L8.55312 15.9375H2.65625C1.95177 15.9375 1.27614 15.6576 0.777998 15.1595C0.279854 14.6614 0 13.9857 0 13.2812ZM16.6812 26.5625L23.3219 53.125H66.9906L73.6312 26.5625H16.6812ZM26.5625 69.0625C25.1535 69.0625 23.8023 69.6222 22.806 70.6185C21.8097 71.6148 21.25 72.966 21.25 74.375C21.25 75.784 21.8097 77.1352 22.806 78.1315C23.8023 79.1278 25.1535 79.6875 26.5625 79.6875C27.9715 79.6875 29.3227 79.1278 30.319 78.1315C31.3153 77.1352 31.875 75.784 31.875 74.375C31.875 72.966 31.3153 71.6148 30.319 70.6185C29.3227 69.6222 27.9715 69.0625 26.5625 69.0625ZM15.9375 74.375C15.9375 71.5571 17.0569 68.8546 19.0495 66.862C21.0421 64.8694 23.7446 63.75 26.5625 63.75C29.3804 63.75 32.0829 64.8694 34.0755 66.862C36.0681 68.8546 37.1875 71.5571 37.1875 74.375C37.1875 77.1929 36.0681 79.8954 34.0755 81.888C32.0829 83.8806 29.3804 85 26.5625 85C23.7446 85 21.0421 83.8806 19.0495 81.888C17.0569 79.8954 15.9375 77.1929 15.9375 74.375ZM63.75 69.0625C62.341 69.0625 60.9898 69.6222 59.9935 70.6185C58.9972 71.6148 58.4375 72.966 58.4375 74.375C58.4375 75.784 58.9972 77.1352 59.9935 78.1315C60.9898 79.1278 62.341 79.6875 63.75 79.6875C65.159 79.6875 66.5102 79.1278 67.5065 78.1315C68.5028 77.1352 69.0625 75.784 69.0625 74.375C69.0625 72.966 68.5028 71.6148 67.5065 70.6185C66.5102 69.6222 65.159 69.0625 63.75 69.0625ZM53.125 74.375C53.125 71.5571 54.2444 68.8546 56.237 66.862C58.2296 64.8694 60.9321 63.75 63.75 63.75C66.5679 63.75 69.2704 64.8694 71.263 66.862C73.2556 68.8546 74.375 71.5571 74.375 74.375C74.375 77.1929 73.2556 79.8954 71.263 81.888C69.2704 83.8806 66.5679 85 63.75 85C60.9321 85 58.2296 83.8806 56.237 81.888C54.2444 79.8954 53.125 77.1929 53.125 74.375Z" fill="#FF5757"/>
</svg>
