<svg width="89" height="84" viewBox="0 0 89 84" fill="none" xmlns="http://www.w3.org/2000/svg">
<path d="M77.875 15.75H5.5625C5.5625 14.3576 6.14855 13.0223 7.19172 12.0377C8.23489 11.0531 9.64973 10.5 11.125 10.5H77.875C79.3503 10.5 80.7651 11.0531 81.8083 12.0377C82.8515 13.0223 83.4375 14.3576 83.4375 15.75H77.875Z" fill="#33FF00"/>
<path fill-rule="evenodd" clip-rule="evenodd" d="M83.4375 26.25H5.5625V68.25H83.4375V26.25ZM5.5625 21C4.08723 21 2.67239 21.5531 1.62922 22.5377C0.586048 23.5223 0 24.8576 0 26.25L0 68.25C0 69.6424 0.586048 70.9777 1.62922 71.9623C2.67239 72.9469 4.08723 73.5 5.5625 73.5H83.4375C84.9128 73.5 86.3276 72.9469 87.3708 71.9623C88.414 70.9777 89 69.6424 89 68.25V26.25C89 24.8576 88.414 23.5223 87.3708 22.5377C86.3276 21.5531 84.9128 21 83.4375 21H5.5625Z" fill="#33FF00"/>
<path d="M72.3125 26.25C72.3125 29.0348 73.4846 31.7055 75.5709 33.6746C77.6573 35.6438 80.487 36.75 83.4375 36.75V26.25H72.3125ZM16.6875 26.25C16.6875 29.0348 15.5154 31.7055 13.4291 33.6746C11.3427 35.6438 8.51303 36.75 5.5625 36.75V26.25H16.6875ZM72.3125 68.25C72.3125 65.4652 73.4846 62.7945 75.5709 60.8254C77.6573 58.8562 80.487 57.75 83.4375 57.75V68.25H72.3125ZM16.6875 68.25C16.6875 65.4652 15.5154 62.7945 13.4291 60.8254C11.3427 58.8562 8.51303 57.75 5.5625 57.75V68.25H16.6875ZM55.625 47.25C55.625 50.0348 54.4529 52.7055 52.3666 54.6746C50.2802 56.6438 47.4505 57.75 44.5 57.75C41.5495 57.75 38.7198 56.6438 36.6334 54.6746C34.5471 52.7055 33.375 50.0348 33.375 47.25C33.375 44.4652 34.5471 41.7945 36.6334 39.8254C38.7198 37.8562 41.5495 36.75 44.5 36.75C47.4505 36.75 50.2802 37.8562 52.3666 39.8254C54.4529 41.7945 55.625 44.4652 55.625 47.25V47.25Z" fill="#33FF00"/>
</svg>
