<svg width="37" height="37" viewBox="0 0 37 37" fill="none" xmlns="http://www.w3.org/2000/svg">
<path d="M16.9583 6.16661H6.16659C5.34883 6.16661 4.56458 6.49146 3.98634 7.0697C3.4081 7.64793 3.08325 8.43219 3.08325 9.24994V30.8333C3.08325 31.651 3.4081 32.4353 3.98634 33.0135C4.56458 33.5918 5.34883 33.9166 6.16659 33.9166H27.7499C28.5677 33.9166 29.3519 33.5918 29.9302 33.0135C30.5084 32.4353 30.8333 31.651 30.8333 30.8333V20.0416M28.5208 3.85411C29.1341 3.2408 29.9659 2.89624 30.8333 2.89624C31.7006 2.89624 32.5324 3.2408 33.1458 3.85411C33.7591 4.46742 34.1036 5.29925 34.1036 6.16661C34.1036 7.03396 33.7591 7.8658 33.1458 8.47911L18.4999 23.1249L12.3333 24.6666L13.8749 18.4999L28.5208 3.85411Z" stroke="#1E1E1E" stroke-width="4" stroke-linecap="round" stroke-linejoin="round"/>
</svg>
