<svg width="19" height="19" viewBox="0 0 19 19" fill="none" xmlns="http://www.w3.org/2000/svg">
<path d="M1.9 5.7H2.17143C3.21643 5.7 4.07143 6.555 4.07143 7.6V17.1C4.07143 18.145 3.21643 19 2.17143 19H1.9C0.855 19 0 18.145 0 17.1V7.6C0 6.555 0.855 5.7 1.9 5.7ZM9.5 0C10.545 0 11.4 0.855 11.4 1.9V17.1C11.4 18.145 10.545 19 9.5 19C8.455 19 7.6 18.145 7.6 17.1V1.9C7.6 0.855 8.455 0 9.5 0ZM17.1 10.8571C18.145 10.8571 19 11.7121 19 12.7571V17.1C19 18.145 18.145 19 17.1 19C16.055 19 15.2 18.145 15.2 17.1V12.7571C15.2 11.7121 16.055 10.8571 17.1 10.8571Z" fill="#03045E"/>
</svg>
