<svg width="27" height="27" viewBox="0 0 27 27" fill="none" xmlns="http://www.w3.org/2000/svg">
<path d="M11.1277 23.0254C12.4459 20.3892 14.4417 18.3809 16.1434 17.0195C16.9892 16.3429 17.7496 15.8359 18.2938 15.501C18.5653 15.3339 18.7832 15.2101 18.9285 15.1299C19.0009 15.09 19.056 15.0601 19.0906 15.042C19.1073 15.0332 19.1198 15.027 19.1268 15.0234C19.1286 15.0224 19.1306 15.0211 19.1317 15.0205L19.1317 12.6162C19.1305 12.6156 19.129 12.6135 19.1268 12.6123C19.1198 12.6087 19.1075 12.6026 19.0906 12.5937C19.056 12.5756 19.001 12.5458 18.9285 12.5059C18.7832 12.4257 18.5655 12.302 18.2938 12.1348C17.7495 11.7998 16.9893 11.293 16.1434 10.6162C14.4416 9.2548 12.4459 7.24662 11.1277 4.61035L9.92462 5.21191L8.7215 5.8125C10.272 8.9136 12.5796 11.2086 14.4637 12.7158C14.9981 13.1433 15.503 13.5106 15.9529 13.8184C15.5034 14.126 14.9976 14.4918 14.4637 14.9189C12.5797 16.4261 10.272 18.7213 8.7215 21.8223L11.1277 23.0254Z" fill="black"/>
</svg>
