<svg width="27" height="27" viewBox="0 0 27 27" fill="none" xmlns="http://www.w3.org/2000/svg">
<path d="M15.5086 23.0254C14.1905 20.3892 12.1947 18.3809 10.493 17.0195C9.64717 16.3429 8.8868 15.8359 8.34259 15.501C8.07101 15.3339 7.85315 15.2101 7.70782 15.1299C7.63547 15.09 7.58032 15.0601 7.54571 15.042C7.52902 15.0332 7.51657 15.027 7.50958 15.0234C7.50773 15.0224 7.50577 15.0211 7.5047 15.0205L7.5047 12.6162C7.50584 12.6156 7.50737 12.6135 7.50958 12.6123C7.51658 12.6087 7.52889 12.6026 7.54571 12.5937C7.58034 12.5756 7.63538 12.5458 7.70782 12.5059C7.85319 12.4257 8.07089 12.302 8.34259 12.1348C8.88687 11.7998 9.64701 11.293 10.493 10.6162C12.1947 9.2548 14.1904 7.24662 15.5086 4.61035L16.7117 5.21191L17.9149 5.8125C16.3644 8.9136 14.0567 11.2086 12.1727 12.7158C11.6383 13.1433 11.1333 13.5106 10.6834 13.8184C11.133 14.126 11.6387 14.4918 12.1727 14.9189C14.0567 16.4261 16.3643 18.7213 17.9149 21.8223L15.5086 23.0254Z" fill="black"/>
</svg>
