<svg width="37" height="37" viewBox="0 0 37 37" fill="none" xmlns="http://www.w3.org/2000/svg">
<path d="M31.2188 15.3658H29.567C29.3853 15.3658 29.2366 15.5145 29.2366 15.6962V17.3479C29.2366 17.5296 29.3853 17.6783 29.567 17.6783H31.2188C31.4005 17.6783 31.5491 17.5296 31.5491 17.3479V15.6962C31.5491 15.5145 31.4005 15.3658 31.2188 15.3658ZM32.5402 11.0712H27.5848V2.31669C27.5848 2.13499 27.4362 1.98633 27.2545 1.98633H9.74554C9.56384 1.98633 9.41518 2.13499 9.41518 2.31669V11.0712H4.45982C2.6346 11.0712 1.15625 12.5495 1.15625 14.3747V27.9194C1.15625 28.6503 1.74676 29.2408 2.47768 29.2408H9.41518V34.6917C9.41518 34.8734 9.56384 35.022 9.74554 35.022H27.2545C27.4362 35.022 27.5848 34.8734 27.5848 34.6917V29.2408H34.5223C35.2532 29.2408 35.8438 28.6503 35.8438 27.9194V14.3747C35.8438 12.5495 34.3654 11.0712 32.5402 11.0712ZM12.2232 4.79436H24.7768V11.0712H12.2232V4.79436ZM24.7768 32.214H12.2232V20.8167H24.7768V32.214ZM33.0357 26.4328H27.5848V18.0087H9.41518V26.4328H3.96429V14.3747C3.96429 14.1022 4.18728 13.8792 4.45982 13.8792H32.5402C32.8127 13.8792 33.0357 14.1022 33.0357 14.3747V26.4328Z" fill="black" fill-opacity="0.97"/>
</svg>
