<?xml version="1.0" standalone="no"?>
<!DOCTYPE svg PUBLIC "-//W3C//DTD SVG 20010904//EN"
 "http://www.w3.org/TR/2001/REC-SVG-20010904/DTD/svg10.dtd">
<svg version="1.0" xmlns="http://www.w3.org/2000/svg"
 width="116.000000pt" height="114.000000pt" viewBox="0 0 116.000000 114.000000"
 preserveAspectRatio="xMidYMid meet">

<g transform="translate(0.000000,114.000000) scale(0.100000,-0.100000)"
fill="#000000" stroke="none">
<path d="M403 1101 c-168 -61 -304 -199 -353 -359 -34 -108 -41 -102 118 -102
l139 0 23 51 c27 57 72 100 136 132 l44 21 0 138 0 138 -27 0 c-16 -1 -51 -9
-80 -19z"/>
<path d="M650 980 l0 -139 43 -19 c57 -25 114 -83 140 -141 26 -57 27 -159 3
-215 l-17 -40 98 -98 c78 -78 100 -95 111 -86 20 17 67 114 86 177 20 70 21
218 1 296 -46 175 -194 333 -363 385 -108 34 -102 41 -102 -120z"/>
<path d="M34 460 c18 -114 96 -246 192 -323 116 -94 234 -132 384 -125 104 6
166 25 256 80 l54 32 -102 103 -101 102 -31 -17 c-48 -26 -179 -23 -232 5 -51
27 -119 103 -134 149 l-12 34 -140 0 -141 0 7 -40z"/>
</g>
</svg>
